<svg xmlns="http://www.w3.org/2000/svg" width="35.548" height="35.659" viewBox="0 0 35.548 35.659">
  <g id="Group_2607" data-name="Group 2607" transform="translate(-2663.85 -3351.85)">
    <path id="Subtraction_1" data-name="Subtraction 1" d="M15.953,33.194H2.76A2.764,2.764,0,0,1,0,30.432,14.154,14.154,0,0,1,17.2,16.616a11.522,11.522,0,0,0-2.527,2.912c-.17-.008-.346-.012-.523-.012A10.89,10.89,0,0,0,3.24,29.962H13.9a11.478,11.478,0,0,0,2.054,3.23Zm-1.8-18.626a7.284,7.284,0,1,1,7.283-7.284A7.292,7.292,0,0,1,14.148,14.568Zm0-11.337A4.054,4.054,0,1,0,18.2,7.285,4.059,4.059,0,0,0,14.148,3.231Z" transform="translate(2664 3352)" fill="#fff" stroke="#fff" stroke-width="0.3"/>
    <g id="Group_2606" data-name="Group 2606" transform="translate(2598.739 3288.673)">
      <path id="Path_3122" data-name="Path 3122" d="M95,97.427a3.967,3.967,0,1,0,3.967-3.967A3.967,3.967,0,0,0,95,97.427Zm6.347,0a2.38,2.38,0,1,1-2.38-2.38A2.38,2.38,0,0,1,101.347,97.427Z" transform="translate(-7.847 -8.77)" fill="#fff" stroke="#fff" stroke-width="0.8"/>
      <path id="Path_3123" data-name="Path 3123" d="M93.226,79.577a.793.793,0,0,0-.639-.543,9.869,9.869,0,0,0-2.936,0,.793.793,0,0,0-.639.547l-.571,1.813a7.807,7.807,0,0,0-2.273,1.313l-1.857-.4a.793.793,0,0,0-.793.278,9.715,9.715,0,0,0-1.472,2.547.793.793,0,0,0,.155.825l1.285,1.4a7.7,7.7,0,0,0,0,2.626l-1.285,1.4a.793.793,0,0,0-.155.825,9.711,9.711,0,0,0,1.472,2.547.793.793,0,0,0,.793.278l1.857-.4a7.8,7.8,0,0,0,2.273,1.317l.571,1.813a.793.793,0,0,0,.639.547,9.821,9.821,0,0,0,2.936,0,.793.793,0,0,0,.639-.543l.571-1.813a7.8,7.8,0,0,0,2.273-1.317l1.857.4a.793.793,0,0,0,.793-.278,9.711,9.711,0,0,0,1.472-2.547.793.793,0,0,0-.155-.825l-1.285-1.4a7.7,7.7,0,0,0,0-2.626l1.285-1.4a.793.793,0,0,0,.155-.825,9.715,9.715,0,0,0-1.472-2.547.793.793,0,0,0-.793-.278l-1.857.4A7.807,7.807,0,0,0,93.8,81.4ZM96,84.337l1.749-.4a8.136,8.136,0,0,1,.75,1.293L97.308,86.57a.793.793,0,0,0-.186.71,6.137,6.137,0,0,1,0,2.749.793.793,0,0,0,.186.714l1.21,1.321a8.128,8.128,0,0,1-.75,1.293l-1.749-.4a.793.793,0,0,0-.71.194,6.184,6.184,0,0,1-2.38,1.377.793.793,0,0,0-.524.52l-.54,1.71a8.225,8.225,0,0,1-1.5,0l-.54-1.71a.793.793,0,0,0-.524-.52,6.184,6.184,0,0,1-2.38-1.377.793.793,0,0,0-.71-.194l-1.749.4a8.128,8.128,0,0,1-.75-1.293l1.21-1.321a.793.793,0,0,0,.186-.714,6.137,6.137,0,0,1,0-2.749.793.793,0,0,0-.186-.71l-1.21-1.321a8.137,8.137,0,0,1,.75-1.293l1.749.4a.793.793,0,0,0,.71-.194,6.18,6.18,0,0,1,2.38-1.377.793.793,0,0,0,.524-.52l.543-1.722a8.29,8.29,0,0,1,1.5,0l.539,1.71a.793.793,0,0,0,.524.52,6.18,6.18,0,0,1,2.38,1.377.793.793,0,0,0,.71.19Z" fill="#fff" stroke="#fff" stroke-width="0.8"/>
    </g>
  </g>
</svg>
