<svg xmlns="http://www.w3.org/2000/svg" width="30.502" height="32.326" viewBox="0 0 30.502 32.326">
  <g id="Group_2" data-name="Group 2" transform="translate(0.5 0.5)">
    <path id="Path_255" data-name="Path 255" d="M808.132,1474.758a12.881,12.881,0,1,0-13.093-12.879A13,13,0,0,0,808.132,1474.758Zm0-23.266a10.388,10.388,0,1,1-10.559,10.387A10.485,10.485,0,0,1,808.132,1451.493Z" transform="translate(-795.038 -1449)" fill="#fff" stroke="#fff" stroke-width="1"/>
    <path id="Path_256" data-name="Path 256" d="M783.419,1507.808a1.273,1.273,0,0,0,.9-.367,1.232,1.232,0,0,0,0-1.763l-6.726-7.3a1.283,1.283,0,0,0-1.792,0,1.233,1.233,0,0,0,0,1.763l6.726,7.305A1.273,1.273,0,0,0,783.419,1507.808Z" transform="translate(-755.185 -1476.482)" fill="#fff" stroke="#fff" stroke-width="1"/>
  </g>
</svg>
