<svg xmlns="http://www.w3.org/2000/svg" width="31.047" height="34.52" viewBox="0 0 31.047 34.52">
  <g id="common-file-settings-1" transform="translate(-4.275 -4.245)">
    <path id="Ellipse_135" data-name="Ellipse 135" d="M3.445-1.75a5.2,5.2,0,1,1-5.2,5.2A5.2,5.2,0,0,1,3.445-1.75Zm0,6.89a1.7,1.7,0,1,0-1.7-1.7A1.7,1.7,0,0,0,3.445,5.14Z" transform="translate(16.355 18.065)" fill="#fff"/>
    <path id="Path_3191" data-name="Path 3191" d="M19.8,4.245a4.807,4.807,0,0,1,4.607,3.434l1.007,3.334a.529.529,0,0,0,.627.365l3.38-.783.007,0a4.823,4.823,0,0,1,4.595,7.993l-2.364,2.55a.55.55,0,0,0,0,.747l2.366,2.552a4.823,4.823,0,0,1-4.595,7.993l-.007,0-3.383-.783a.529.529,0,0,0-.624.365l-1.008,3.338a4.807,4.807,0,0,1-9.2,0l-1.021-3.334,0-.007a.533.533,0,0,0-.507-.378.539.539,0,0,0-.12.014l-3.38.783-.007,0a4.823,4.823,0,0,1-4.595-7.993l2.364-2.55a.55.55,0,0,0,0-.747L5.572,18.586a4.823,4.823,0,0,1,4.595-7.993l.007,0,3.383.783a.529.529,0,0,0,.624-.365L15.2,7.678A4.807,4.807,0,0,1,19.8,4.245Zm6.121,10.647a4.031,4.031,0,0,1-3.857-2.867L21.058,8.688l0-.008a1.307,1.307,0,0,0-2.506,0l0,.011-1.015,3.337a4.031,4.031,0,0,1-3.856,2.863,4.044,4.044,0,0,1-.9-.1l-3.382-.783A1.323,1.323,0,0,0,8.132,16.2l0,0L10.5,18.756a4.047,4.047,0,0,1,0,5.51l-2.364,2.55,0,0A1.323,1.323,0,0,0,9.39,29.014l3.378-.782a4.026,4.026,0,0,1,3.292.68,4,4,0,0,1,1.471,2.079l1.021,3.335,0,.008a1.307,1.307,0,0,0,2.5,0L22.066,31a4.031,4.031,0,0,1,3.857-2.866,4.043,4.043,0,0,1,.9.1l3.382.783a1.323,1.323,0,0,0,1.257-2.194l0,0L29.1,24.264a4.047,4.047,0,0,1,0-5.51l2.364-2.55,0,0a1.323,1.323,0,0,0-1.256-2.194l-3.379.782A4.05,4.05,0,0,1,25.923,14.892Z" fill="#fff"/>
  </g>
</svg>
